<svg id="Layer_2" data-name="Layer 2" xmlns="http://www.w3.org/2000/svg" width="300" height="79.22" viewBox="0 0 300 79.22"><defs><style>.cls-1{fill:#fff;}</style></defs><title>logo_white_new_small</title><g id="text"><path class="cls-1" d="M20.19,59.19a3.86,3.86,0,0,0-3.32,1.61,7.51,7.51,0,0,0-1.17,4.49c0,4,1.5,6,4.49,6a14.22,14.22,0,0,0,4.58-.94v3.19a12.81,12.81,0,0,1-4.93.92,7.51,7.51,0,0,1-6-2.38q-2.07-2.37-2.07-6.8a11.22,11.22,0,0,1,1-4.9,7.34,7.34,0,0,1,2.93-3.22A8.62,8.62,0,0,1,20.19,56a12.12,12.12,0,0,1,5.25,1.27l-1.23,3.09a20.54,20.54,0,0,0-2-.84A6.2,6.2,0,0,0,20.19,59.19Z"/><path class="cls-1" d="M38.9,74.2H28.58V56.28H38.9v3.11H32.38v3.94h6.06v3.11H32.38v4.62H38.9Z"/><path class="cls-1" d="M58.53,74.2H53.7L45.91,60.65H45.8C46,63,46,64.75,46,65.77V74.2H42.64V56.28h4.79L55.21,69.7h.09c-.13-2.33-.19-4-.19-4.94V56.28h3.42Z"/><path class="cls-1" d="M70,74.2h-3.8V59.44H61.29V56.28H74.82v3.16H70Z"/><path class="cls-1" d="M87.9,74.2H77.58V56.28H87.9v3.11H81.38v3.94h6.06v3.11H81.38v4.62H87.9Z"/><path class="cls-1" d="M95.43,67.32V74.2h-3.8V56.28h5.23a9,9,0,0,1,5.4,1.33,5.3,5.3,0,0,1,.88,6.85,5.72,5.72,0,0,1-2.46,1.93q4,6,5.27,7.81h-4.22l-4.27-6.88Zm0-3.08h1.23a4.69,4.69,0,0,0,2.66-.6,2.15,2.15,0,0,0,.86-1.89,2,2,0,0,0-.88-1.82,5.3,5.3,0,0,0-2.71-.54H95.43Z"/><path class="cls-1" d="M122.34,59.19A3.88,3.88,0,0,0,119,60.8a7.51,7.51,0,0,0-1.17,4.49c0,4,1.5,6,4.5,6a14.21,14.21,0,0,0,4.57-.94v3.19a12.77,12.77,0,0,1-4.93.92,7.51,7.51,0,0,1-6-2.38q-2.07-2.37-2.07-6.8a11.08,11.08,0,0,1,1-4.9,7.26,7.26,0,0,1,2.92-3.22A8.63,8.63,0,0,1,122.34,56a12,12,0,0,1,5.24,1.27l-1.22,3.09a20.71,20.71,0,0,0-2-.84A6.14,6.14,0,0,0,122.34,59.19Z"/><path class="cls-1" d="M147,65.22q0,4.44-2.2,6.84a9.56,9.56,0,0,1-12.65,0q-2.2-2.4-2.21-6.87t2.22-6.83A8.26,8.26,0,0,1,138.48,56a8.15,8.15,0,0,1,6.32,2.38Q147,60.75,147,65.22Zm-13.07,0a7.47,7.47,0,0,0,1.14,4.52,4,4,0,0,0,3.4,1.52c3,0,4.55-2,4.55-6s-1.51-6.06-4.52-6.06a4,4,0,0,0-3.42,1.53A7.43,7.43,0,0,0,133.91,65.22Z"/><path class="cls-1" d="M163.08,61.87a5.52,5.52,0,0,1-1.81,4.43,7.75,7.75,0,0,1-5.14,1.53H154.5V74.2h-3.8V56.28h5.72a7.6,7.6,0,0,1,5,1.41A5.11,5.11,0,0,1,163.08,61.87Zm-8.58,2.84h1.25a4.18,4.18,0,0,0,2.62-.69,2.41,2.41,0,0,0,.87-2,2.48,2.48,0,0,0-.73-2,3.46,3.46,0,0,0-2.29-.64H154.5Z"/><path class="cls-1" d="M176.78,74.2H166.46V56.28h10.32v3.11h-6.52v3.94h6.06v3.11h-6.06v4.62h6.52Z"/><path class="cls-1" d="M196.41,74.2h-4.83l-7.79-13.55h-.11c.15,2.39.23,4.1.23,5.12V74.2h-3.39V56.28h4.79l7.78,13.42h.09c-.13-2.33-.19-4-.19-4.94V56.28h3.42Z"/><path class="cls-1" d="M215.61,74.2h-3.79V66.47h-7.1V74.2h-3.8V56.28h3.8v7h7.1v-7h3.79Z"/><path class="cls-1" d="M231.1,74.2l-1.3-4.26h-6.53L222,74.2h-4.1l6.33-18h4.64l6.35,18Zm-2.21-7.45c-1.2-3.87-1.88-6-2-6.56s-.26-.91-.32-1.2c-.27,1-1,3.63-2.32,7.76Z"/><path class="cls-1" d="M244.25,64.14h7.11v9.29a20.74,20.74,0,0,1-3.26.79,21.31,21.31,0,0,1-3.12.23,7.88,7.88,0,0,1-6.19-2.39q-2.14-2.39-2.14-6.84a9,9,0,0,1,2.48-6.77A9.43,9.43,0,0,1,246,56a13.25,13.25,0,0,1,5.32,1.11l-1.26,3a9,9,0,0,0-4.08-1,5.06,5.06,0,0,0-4,1.65,6.41,6.41,0,0,0-1.48,4.45,7.22,7.22,0,0,0,1.19,4.46,4.16,4.16,0,0,0,3.48,1.53,12.46,12.46,0,0,0,2.41-.24V67.3h-3.39Z"/><path class="cls-1" d="M265.94,74.2H255.62V56.28h10.32v3.11h-6.52v3.94h6.07v3.11h-6.07v4.62h6.52Z"/><path class="cls-1" d="M285.58,74.2h-4.83L273,60.65h-.11c.16,2.39.23,4.1.23,5.12V74.2h-3.39V56.28h4.79l7.78,13.42h.09c-.12-2.33-.18-4-.18-4.94V56.28h3.42Z"/></g><g id="k"><polygon class="cls-1" points="80.63 9.43 55.8 9.43 32.53 22.89 34.38 9.43 14.02 9.43 8.57 42.01 29.91 42.01 32.22 25.17 32.22 25.17 52.25 42.01 78.26 42.01 53.43 24.41 80.63 9.43"/></g><g id="o"><path class="cls-1" d="M108.75,8.64c-21.62,0-38.5,7.65-38.5,17.08S87.13,42.8,108.75,42.8s38.1-8,38.1-17.48S130.37,8.64,108.75,8.64Zm2.09,27.07c-11,0-21.81-4.41-21.81-10s10.62-10.79,21.66-10.79,20,4.53,20,10.11S121.88,35.71,110.84,35.71Z"/></g><g id="ga"><path class="cls-1" d="M264.73,9.15l-24.32.33-29.08,28,2-14.81s-24.88-.89-28,.44l-.66,5.86,11.71.55-.55,5s-32.94,5-29.07-9.15,41.9-8.43,41.9-8.43l5,.55.33-5s-25.87-6.3-42.12-2.77-25,8.8-25,15.62,3.45,13.57,18.93,16.11,39,.67,39,.67h24l8.4-9.29,23.66-.11L266.94,42l21.34.11ZM243.06,25.32l8.51-9,5.75,9Z"/></g><g id="cyklist"><path class="cls-1" d="M284.69,5.78a6.74,6.74,0,1,0,6.74,6.74A6.74,6.74,0,0,0,284.69,5.78Zm-5.46,5.45,1.53.87.73,2.57-1,1.75Zm10,5.85c-.41.51-1.14-.22-1.14-.22s-1.56-1.2-2.44-1.85a1.33,1.33,0,0,1-.56-1.49l.39-2.9h-3.53s.78.42,2,1.15.34,1.58.34,1.58l-1.8,3.43s-.73,1.37-1.32,1,.12-1.61.12-1.61l1.7-3.36s-2.18-1.15-3.47-2.05,0-1.56,0-1.56,5.55-.05,6.69,0a.73.73,0,0,1,.76,1l-.51,3.58s2,1.66,2.46,2S289.64,16.56,289.22,17.08ZM289,12.23a1.51,1.51,0,1,1,1.51-1.51A1.5,1.5,0,0,1,289,12.23Z"/></g></svg>
