<svg id="Layer_2" data-name="Layer 2" xmlns="http://www.w3.org/2000/svg" width="2197.59" height="568.88" viewBox="0 0 2197.59 568.88"><defs><style>.cls-1{fill:#fff;}</style></defs><title>logo_white_new</title><g id="text"><path class="cls-1" d="M111.66,434.6q-16.25,0-25.16,12.21t-8.92,34q0,45.42,34.08,45.41,14.31,0,34.64-7.15v24.15q-16.71,7-37.33,7-29.62,0-45.32-18T48,480.66q0-21.18,7.71-37.1a55.66,55.66,0,0,1,22.15-24.42q14.43-8.5,33.84-8.5,19.78,0,39.75,9.56l-9.29,23.41a152.72,152.72,0,0,0-15.32-6.32A45.83,45.83,0,0,0,111.66,434.6Z"/><path class="cls-1" d="M253.37,548.35H175.18V412.59h78.19v23.59H204V466h46v23.58H204v35h49.4Z"/><path class="cls-1" d="M402.14,548.35H365.55l-59.06-102.7h-.84q1.77,27.21,1.77,38.82v63.88H281.7V412.59H318l59,101.68h.65q-1.39-26.46-1.39-37.42V412.59h25.91Z"/><path class="cls-1" d="M488.69,548.35H459.9V436.55H423v-24H525.55v24H488.69Z"/><path class="cls-1" d="M624.64,548.35H546.45V412.59h78.19v23.59h-49.4V466h46v23.58h-46v35h49.4Z"/><path class="cls-1" d="M681.75,496.26v52.09H653V412.59h39.56q27.68,0,41,10.07t13.28,30.6a36.09,36.09,0,0,1-6.59,21.32q-6.6,9.33-18.67,14.62,30.64,45.78,39.94,59.15H729.48l-32.41-52.09Zm0-23.4H691q13.65,0,20.15-4.55t6.5-14.3q0-9.66-6.64-13.75t-20.57-4.08h-8.73Z"/><path class="cls-1" d="M885.58,434.6q-16.25,0-25.16,12.21t-8.92,34q0,45.42,34.08,45.41,14.31,0,34.64-7.15v24.15q-16.71,7-37.33,7-29.62,0-45.32-18t-15.69-51.58q0-21.18,7.71-37.1a55.63,55.63,0,0,1,22.14-24.42q14.44-8.5,33.85-8.5,19.78,0,39.75,9.56L916,443.61a153.7,153.7,0,0,0-15.32-6.32A45.88,45.88,0,0,0,885.58,434.6Z"/><path class="cls-1" d="M1072.33,480.29q0,33.7-16.72,51.81t-47.91,18.11q-31.2,0-47.92-18.11t-16.72-52q0-33.9,16.77-51.77t48-17.88q31.3,0,47.87,18T1072.33,480.29Zm-99.08,0q0,22.74,8.63,34.26t25.82,11.52q34.44,0,34.45-45.78t-34.27-45.88q-17.18,0-25.91,11.56T973.25,480.29Z"/><path class="cls-1" d="M1194.26,454.93q0,21.93-13.7,33.53t-39,11.61h-12.36v48.28h-28.78V412.59h43.36q24.7,0,37.57,10.63T1194.26,454.93Zm-65,21.55h9.48q13.27,0,19.87-5.25t6.59-15.27q0-10.12-5.52-14.95t-17.32-4.83h-13.1Z"/><path class="cls-1" d="M1298.08,548.35h-78.19V412.59h78.19v23.59h-49.4V466h46v23.58h-46v35h49.4Z"/><path class="cls-1" d="M1446.85,548.35h-36.59l-59.06-102.7h-.84q1.77,27.21,1.77,38.82v63.88H1326.4V412.59h36.31l59,101.68h.65q-1.39-26.46-1.39-37.42V412.59h25.91Z"/><path class="cls-1" d="M1592.27,548.35h-28.7V489.76h-53.76v58.59H1481V412.59h28.79V465.8h53.76V412.59h28.7Z"/><path class="cls-1" d="M1709.65,548.35,1699.8,516h-49.49l-9.85,32.31h-31L1657.37,412h35.19l48.1,136.32Zm-16.72-56.46q-13.65-43.92-15.37-49.68t-2.46-9.1Q1672,445,1657.55,491.89Z"/><path class="cls-1" d="M1809.29,472.11h53.86V542.5a151.09,151.09,0,0,1-24.66,6,159.81,159.81,0,0,1-23.63,1.72q-30.73,0-46.94-18.06t-16.21-51.86q0-32.88,18.81-51.26t52.14-18.39A100.91,100.91,0,0,1,1863,419l-9.56,23a68.26,68.26,0,0,0-30.93-7.43q-18.66,0-29.9,12.53t-11.23,33.71q0,22.11,9.05,33.76t26.33,11.65A93,93,0,0,0,1835,524.4V496.07h-25.72Z"/><path class="cls-1" d="M1973.66,548.35h-78.19V412.59h78.19v23.59h-49.41V466h46v23.58h-46v35h49.41Z"/><path class="cls-1" d="M2122.42,548.35h-36.59l-59.06-102.7h-.83q1.75,27.21,1.76,38.82v63.88H2002V412.59h36.31l59,101.68h.65q-1.39-26.46-1.4-37.42V412.59h25.91Z"/></g><g id="k"><polygon class="cls-1" points="569.57 57.6 381.42 57.6 205.17 159.6 219.16 57.6 64.85 57.6 23.57 304.48 185.31 304.48 202.8 176.87 202.8 176.87 354.54 304.48 551.65 304.48 363.5 171.09 569.57 57.6"/></g><g id="o"><path class="cls-1" d="M782.63,51.63C618.8,51.63,490.92,109.57,490.92,181S618.8,310.46,782.63,310.46s288.67-61,288.67-132.46S946.45,51.63,782.63,51.63ZM798.48,256.7c-83.65,0-165.25-33.38-165.25-75.66S713.68,99.3,797.33,99.3,948.8,133.58,948.8,175.86,882.13,256.7,798.48,256.7Z"/></g><g id="ga"><path class="cls-1" d="M1964.47,55.48,1780.18,58,1559.87,269.93,1575,157.68S1386.48,151,1363,161l-5,44.4,88.8,4.19-4.19,37.69S1193,285.44,1222.29,178s317.48-63.88,317.48-63.88l37.7,4.19,2.51-37.7s-196-47.74-319.16-20.94S1071.08,126.28,1071.3,178s26.18,102.82,143.45,122.08,295.7,5,295.7,5h181.78l63.66-70.36,179.26-.84,46.07,70.36,161.68.84ZM1800.29,178l64.5-68.07L1908.35,178Z"/></g><g id="cyklist"><path class="cls-1" d="M2115.74,30A51.07,51.07,0,1,0,2166.8,81,51.06,51.06,0,0,0,2115.74,30Zm-41.41,41.27,11.58,6.62,5.59,19.44-7.45,13.24Zm75.74,44.3c-3.13,3.88-8.67-1.66-8.67-1.66s-11.81-9-18.46-14-4.24-11.26-4.24-11.26l3-22h-26.76s5.91,3.13,15.14,8.67,2.58,12,2.58,12l-13.66,26s-5.53,10.33-10,7.75.9-12.21.9-12.21l12.9-25.41s-16.57-8.7-26.35-15.53,0-11.81,0-11.81,42.08-.37,50.75,0S2132.9,64,2132.9,64L2129,91.17s14.95,12.55,18.64,15.13S2153.21,111.66,2150.07,115.53Zm-1.93-36.69a11.45,11.45,0,1,1,11.45-11.45A11.45,11.45,0,0,1,2148.14,78.84Z"/></g></svg>
