<svg id="Layer_2" data-name="Layer 2" xmlns="http://www.w3.org/2000/svg" width="3547.92" height="1367.83" viewBox="0 0 3547.92 1367.83"><defs><style>.cls-1{fill:#fff;}</style></defs><title>Artboard 1</title><polygon class="cls-1" points="891.91 320.82 603.04 320.82 332.43 477.42 353.9 320.82 116.99 320.82 53.6 699.87 301.93 699.87 328.8 503.93 328.8 503.93 561.77 699.87 864.4 699.87 575.52 495.06 891.91 320.82"/><path class="cls-1" d="M1219,311.65c-251.53,0-447.88,89-447.88,198.7S967.51,709,1219,709s443.21-93.63,443.21-203.36S1470.57,311.65,1219,311.65Zm24.34,314.86c-128.44,0-253.73-51.25-253.73-116.16s123.52-125.51,252-125.51,232.56,52.63,232.56,117.55S1371.82,626.51,1243.38,626.51Z"/><path class="cls-1" d="M3033.6,317.57l-282.95,3.86L2412.39,646.82l23.15-172.34s-289.38-10.29-325.39,5.14l-7.72,68.17,136.33,6.43-6.43,57.87s-383.27,58.55-338.25-106.41,487.44-98.08,487.44-98.08L2439.4,414l3.86-57.88s-301-73.31-490-32.15-291.32,102.27-291,181.68,40.2,157.86,220.25,187.44,454,7.72,454,7.72H2615.6l97.75-108,275.23-1.29,70.74,108,248.22,1.29ZM2781.51,505.68l99-104.51,66.88,104.51Z"/><path class="cls-1" d="M3281.2,263a78.4,78.4,0,1,0,78.4,78.4A78.4,78.4,0,0,0,3281.2,263Zm-63.58,63.36,17.78,10.16,8.58,29.86-11.43,20.32Zm116.3,68c-4.82,5.95-13.32-2.55-13.32-2.55s-18.14-13.88-28.34-21.53-6.51-17.29-6.51-17.29l4.53-33.72h-41.09s9.07,4.82,23.24,13.32,4,18.42,4,18.42l-21,39.95s-8.5,15.87-15.3,11.9,1.39-18.74,1.39-18.74l19.8-39s-25.44-13.37-40.46-23.85,0-18.14,0-18.14,64.6-.56,77.92,0,8.76,12.19,8.76,12.19L3301.61,357s22.95,19.27,28.62,23.23S3338.73,388.46,3333.92,394.41Zm-3-56.33a17.58,17.58,0,1,1,17.57-17.58A17.58,17.58,0,0,1,3331,338.08Z"/></svg>
