<svg id="Layer_1" data-name="Layer 1" xmlns="http://www.w3.org/2000/svg" xmlns:xlink="http://www.w3.org/1999/xlink" width="290" height="90" viewBox="0 0 290 90"><defs><style>.cls-1{fill:url(#linear-gradient);}</style><linearGradient id="linear-gradient" x1="176.69" y1="104.31" x2="175.09" y2="-9.07" gradientUnits="userSpaceOnUse"><stop offset="0" stop-color="blue"/><stop offset="0.81" stop-color="#06005b"/><stop offset="1" stop-color="#d4e1ff"/></linearGradient></defs><title>Artboard 1</title><path class="cls-1" d="M23.68,9.57H38.56L33,39.24l.29,0c2-2.48,4.23-4.76,6.19-7L60.25,9.57H79.66L50.05,38.43,68.35,77H51.79L38.17,47.41l-8,7.06L25.82,77H10.94Z"/><path class="cls-1" d="M143.18,38.73c0,11.54-4.18,21.53-11.55,28.68-7,6.74-16.68,10.76-28.2,10.76C85,78.17,72.52,66.48,72.52,48A39.47,39.47,0,0,1,84.46,19.1,40.22,40.22,0,0,1,112.33,8.37C131.2,8.37,143.18,19.89,143.18,38.73Zm-46.52-12a29.11,29.11,0,0,0-8,20.22c0,11.37,5.56,18.82,16.95,18.82a19.19,19.19,0,0,0,13.61-5.91c4.84-4.84,7.78-12.31,7.78-20.28,0-9.81-3.86-18.89-16.41-18.89A19.6,19.6,0,0,0,96.66,26.77Z"/><path class="cls-1" d="M209.15,73.46a85,85,0,0,1-24.69,4.21c-9.62,0-18.21-2.35-24.5-7.49-6.08-5-9.62-12.75-9.62-22.13a36.31,36.31,0,0,1,14.1-29.21c8.27-6.44,19.55-10,32.38-10,9.84,0,17.44,2,20.24,3.4l-4.42,12.5A41.94,41.94,0,0,0,196,21.54c-7.37,0-14.15,2.07-19.11,5.7a23.89,23.89,0,0,0-9.85,19.49c0,12.31,8,18.27,20.39,18.27a21.52,21.52,0,0,0,8.6-1.46l2.58-13.33h-12l2.36-12h26.83Z"/><path class="cls-1" d="M241.26,58.85,232.67,77H216.2l34.73-67.4h19.82L281,77H264.88L263,58.85ZM262,47.28l-1.85-14.4c-.43-3.59-1-8.42-1.47-12.22h-.2C256.72,24.48,255,29,253,32.9L246,47.28Z"/></svg>
