<?xml version="1.0" standalone="no"?>
<!DOCTYPE svg PUBLIC "-//W3C//DTD SVG 20010904//EN"
 "http://www.w3.org/TR/2001/REC-SVG-20010904/DTD/svg10.dtd">
<svg version="1.0" xmlns="http://www.w3.org/2000/svg"
 width="648.000000pt" height="648.000000pt" viewBox="0 0 648.000000 648.000000"
 preserveAspectRatio="xMidYMid meet">
<metadata>
Created by potrace 1.11, written by Peter Selinger 2001-2013
</metadata>
<g transform="translate(0.000000,648.000000) scale(0.100000,-0.100000)"
fill="#000000" stroke="none">
<path d="M3088 5975 c-2 -2 -41 -6 -88 -9 -47 -3 -96 -8 -110 -11 -14 -2 -42
-6 -62 -9 -20 -2 -61 -9 -90 -15 -29 -6 -64 -13 -78 -15 -164 -31 -583 -175
-640 -222 -8 -6 -26 -15 -39 -19 -14 -4 -37 -15 -52 -24 -15 -9 -58 -34 -96
-55 -71 -41 -200 -124 -219 -141 -6 -5 -22 -17 -34 -25 -21 -14 -44 -32 -129
-98 -32 -25 -81 -70 -168 -153 -60 -57 -155 -159 -203 -219 -25 -30 -53 -63
-62 -74 -23 -26 -169 -240 -202 -296 -15 -25 -43 -79 -64 -120 -20 -41 -40
-77 -43 -80 -12 -10 -108 -247 -143 -351 -31 -92 -83 -287 -92 -344 -4 -25
-23 -141 -29 -175 -20 -112 -27 -519 -12 -650 8 -62 10 -79 22 -167 3 -21 8
-45 10 -53 3 -8 7 -29 9 -45 2 -17 9 -52 16 -80 6 -27 13 -57 15 -65 39 -189
194 -567 308 -751 12 -20 36 -60 52 -88 17 -28 33 -51 38 -51 4 0 7 -5 7 -10
0 -6 5 -16 10 -23 6 -7 47 -61 92 -122 76 -101 345 -382 428 -447 19 -15 62
-48 95 -74 192 -148 453 -295 693 -388 84 -33 210 -76 235 -80 7 -1 37 -9 67
-18 84 -25 252 -58 370 -73 210 -26 546 -26 730 1 209 31 485 100 615 154 11
5 65 27 120 50 90 38 292 137 305 150 3 3 22 14 43 25 20 11 37 23 37 27 0 5
5 8 11 8 14 0 164 103 254 175 188 150 376 343 517 533 24 31 45 59 48 62 3 3
10 14 16 25 7 11 39 63 72 116 53 83 133 235 185 349 52 114 163 447 153 458
-3 2 -1 12 3 21 10 18 40 157 46 211 2 19 6 49 9 65 16 104 20 175 20 380 1
127 -3 255 -7 285 -4 30 -10 78 -14 105 -3 28 -7 59 -9 70 -1 11 -3 20 -4 20
-1 0 -3 9 -4 20 -11 83 -65 291 -103 400 -13 39 -26 75 -27 80 -3 10 -20 55
-33 85 -3 8 -7 17 -8 20 -1 3 -7 18 -13 33 -7 16 -12 32 -12 36 0 5 -7 14 -15
21 -9 7 -13 15 -11 17 4 5 -72 161 -84 173 -3 3 -14 23 -25 45 -23 46 -176
276 -220 330 -149 185 -315 352 -473 476 -42 33 -84 65 -92 72 -17 14 -91 62
-198 131 -69 44 -230 128 -337 176 -60 27 -252 100 -280 107 -25 5 -36 8 -55
15 -30 11 -136 39 -162 43 -15 2 -44 8 -65 14 -21 6 -56 13 -78 16 -22 3 -51
8 -65 10 -14 3 -47 7 -75 11 -27 3 -63 8 -80 11 -32 5 -442 13 -447 8z m837
-1448 c93 -11 180 -41 225 -79 74 -63 101 -172 73 -298 -8 -36 -16 -78 -19
-94 -2 -15 -13 -92 -25 -170 -11 -77 -22 -156 -25 -175 -2 -19 -6 -46 -9 -60
-2 -14 -7 -46 -10 -71 -3 -25 -8 -61 -11 -80 -2 -19 -7 -51 -9 -70 -3 -19 -7
-46 -10 -60 -2 -14 -7 -47 -11 -75 -3 -27 -8 -59 -10 -70 -2 -11 -6 -44 -10
-73 -3 -29 -7 -63 -10 -75 -2 -12 -7 -42 -10 -67 -3 -25 -8 -56 -10 -70 -3
-14 -7 -38 -8 -55 -2 -16 -6 -48 -10 -70 -3 -22 -12 -83 -19 -136 l-14 -96
120 -99 c65 -55 124 -104 131 -109 6 -6 63 -53 126 -104 63 -52 120 -99 125
-105 6 -6 35 -30 65 -53 30 -23 67 -53 81 -65 15 -13 41 -34 60 -48 33 -25
100 -80 109 -90 3 -3 21 -17 40 -30 19 -14 42 -32 52 -40 31 -28 47 -40 115
-87 142 -98 220 -198 230 -293 11 -99 -65 -237 -155 -284 -31 -16 -127 -28
-137 -18 -3 3 -13 7 -22 8 -30 5 -138 63 -185 101 -27 21 -92 72 -145 113 -54
41 -104 81 -112 88 -8 7 -26 21 -40 30 -14 9 -33 23 -41 29 -8 7 -62 49 -120
92 -58 44 -109 84 -115 89 -5 4 -129 98 -275 207 -345 260 -417 332 -470 473
-32 84 -43 191 -28 267 5 22 15 79 22 127 8 48 18 93 22 99 4 7 3 9 -4 5 -7
-4 -8 4 -2 26 5 18 12 58 15 88 3 30 8 68 11 84 3 16 7 48 9 70 2 23 7 57 9
76 3 19 8 55 11 80 4 25 8 56 10 70 2 14 6 45 9 70 3 25 12 95 20 155 8 61 18
133 21 160 3 28 8 61 10 75 13 85 14 100 7 101 -4 1 -334 2 -734 3 -535 1
-724 -2 -715 -10 7 -6 46 -29 87 -52 159 -85 521 -292 530 -303 3 -3 12 -8 20
-12 8 -4 33 -18 55 -32 22 -13 54 -32 70 -41 136 -76 245 -176 291 -269 25
-51 29 -71 29 -140 0 -69 -5 -90 -32 -147 -17 -37 -37 -73 -43 -80 -45 -54
-62 -80 -105 -166 -27 -53 -52 -99 -55 -102 -8 -8 -43 -85 -39 -86 2 -1 -3
-10 -12 -20 -8 -11 -29 -46 -46 -79 -50 -98 -143 -275 -183 -350 -36 -67 -84
-159 -240 -460 -120 -231 -139 -266 -208 -370 -79 -120 -216 -261 -287 -295
-103 -49 -211 -19 -251 70 -27 60 -31 79 -29 140 4 88 12 129 47 235 31 91 65
162 318 660 78 154 219 431 312 615 94 184 174 340 179 345 10 14 -3 22 -216
135 -55 29 -105 57 -111 61 -6 5 -37 23 -70 40 -323 172 -942 550 -1094 668
-232 181 -267 359 -104 525 27 27 67 60 89 75 l40 26 265 5 c313 6 2537 3
2595 -3z m1280 -7 c123 -32 245 -106 327 -200 39 -45 103 -155 124 -215 34
-95 39 -273 11 -371 -68 -239 -260 -411 -512 -459 -34 -6 -170 -7 -200 -1
-249 51 -426 202 -505 430 -28 83 -41 219 -26 289 3 15 8 39 10 53 24 135 152
321 263 381 18 10 33 21 33 25 0 5 4 8 9 8 5 0 29 9 55 20 25 12 49 21 53 21
5 0 13 4 18 9 6 4 32 11 60 15 27 3 51 8 53 9 8 9 182 -3 227 -14z m-3976
-985 c140 -80 258 -145 263 -145 4 0 8 -4 8 -10 0 -5 5 -10 11 -10 6 0 23 -9
39 -20 15 -11 30 -17 33 -14 7 7 24 -25 31 -57 3 -13 15 -55 26 -94 12 -38 23
-77 25 -85 2 -8 4 -15 5 -15 1 0 3 -8 5 -18 4 -19 32 -118 46 -157 7 -21 26
-90 35 -125 1 -5 14 -50 29 -100 15 -49 36 -121 46 -160 11 -38 21 -77 24 -85
2 -8 16 -56 31 -107 l26 -92 -21 -30 c-13 -17 -19 -31 -15 -31 3 0 1 -7 -6
-15 -6 -8 -20 -29 -29 -47 -68 -126 -296 -524 -305 -530 -6 -4 -7 -8 -3 -8 5
0 -2 -14 -14 -32 l-23 -32 -8 30 c-4 16 -10 38 -12 49 -3 11 -12 52 -21 90 -9
39 -19 81 -21 94 -3 13 -9 32 -15 43 -5 10 -8 18 -5 18 2 0 0 16 -6 36 -5 20
-11 44 -13 53 -8 39 -186 749 -195 781 -8 28 -102 403 -115 460 -1 8 -29 119
-60 245 -67 270 -66 265 -57 265 4 0 121 -65 261 -145z"/>
</g>
</svg>
